<svg width="1908" height="1894" viewBox="0 0 1908 1894" fill="none" xmlns="http://www.w3.org/2000/svg">
<g filter="url(#filter0_d_15_344)">
<path d="M1124.25 1284.73C908.417 1392.05 693.928 1450.6 521.676 1458.59C435.547 1462.58 360.075 1453.93 300.302 1432.48C240.542 1411.03 196.591 1376.85 173.215 1329.84C149.839 1282.83 149.113 1227.15 168.083 1166.56C187.059 1105.96 225.708 1040.56 280.875 974.296C391.205 841.775 567.35 706.101 783.186 598.783C999.023 491.464 1213.51 432.907 1385.76 424.922C1471.89 420.93 1547.36 429.586 1607.14 451.034C1666.9 472.478 1710.85 506.658 1734.22 553.672C1757.6 600.686 1758.33 656.359 1739.36 716.95C1720.38 777.553 1681.73 842.952 1626.56 909.215C1516.23 1041.74 1340.09 1177.41 1124.25 1284.73Z" stroke="#9343C7" stroke-width="4" shape-rendering="crispEdges"/>
</g>
<g filter="url(#filter1_d_15_344)">
<path d="M955.502 329.93C1196.35 329.93 1414.32 398.22 1572.01 508.526C1729.72 618.838 1827 771.039 1827 938.93C1827 1106.82 1729.72 1259.02 1572.01 1369.33C1414.32 1479.64 1196.35 1547.93 955.502 1547.93C714.651 1547.93 496.688 1479.64 338.99 1369.33C181.287 1259.02 84.002 1106.82 84.002 938.93C84.002 771.039 181.287 618.838 338.99 508.526C496.688 398.22 714.651 329.93 955.502 329.93Z" stroke="#0D548F" stroke-width="4" shape-rendering="crispEdges"/>
</g>
<g filter="url(#filter2_d_15_344)">
<path d="M957.502 504.607C1197.93 504.607 1415.5 550.795 1572.89 625.38C1730.43 700.037 1827 802.783 1827 915.607C1827 1028.43 1730.43 1131.18 1572.89 1205.83C1415.5 1280.42 1197.93 1326.61 957.502 1326.61C717.073 1326.61 499.503 1280.42 342.115 1205.83C184.575 1131.18 88.002 1028.43 88.002 915.607C88.002 802.783 184.575 700.037 342.115 625.38C499.503 550.795 717.073 504.607 957.502 504.607Z" stroke="#06477C" stroke-width="4" shape-rendering="crispEdges"/>
</g>
<g filter="url(#filter3_d_15_344)">
<path d="M1352.28 1100.3C1259.84 1319.04 1135.4 1499.75 1009.04 1615.1C882.527 1730.59 754.713 1780.06 655.172 1737.99C555.632 1695.92 502.034 1569.79 496.686 1398.58C491.345 1227.56 534.218 1012.38 626.661 793.642C719.104 574.902 843.538 394.195 969.907 278.838C1096.42 163.354 1224.23 113.883 1323.77 155.951C1423.31 198.018 1476.91 324.157 1482.26 495.366C1487.6 666.385 1444.72 881.562 1352.28 1100.3Z" stroke="url(#paint0_linear_15_344)" stroke-width="4" shape-rendering="crispEdges"/>
</g>
<g filter="url(#filter4_d_15_344)">
<path d="M1539 949.107C1539 1191.92 1474.45 1411.65 1370.18 1570.62C1265.91 1729.6 1122.08 1827.61 963.502 1827.61C804.922 1827.61 661.096 1729.6 556.82 1570.62C452.556 1411.65 388.002 1191.92 388.002 949.107C388.002 706.297 452.556 486.566 556.82 327.597C661.096 168.611 804.922 70.6074 963.502 70.6074C1122.08 70.6074 1265.91 168.611 1370.18 327.597C1474.45 486.566 1539 706.297 1539 949.107Z" stroke="url(#paint1_linear_15_344)" stroke-width="4" shape-rendering="crispEdges"/>
</g>
<g filter="url(#filter5_d_15_344)">
<path d="M1236.5 961.33C1236.5 1113.73 1110.18 1237.55 954.002 1237.55C797.826 1237.55 671.502 1113.73 671.502 961.33C671.502 808.93 797.826 685.107 954.002 685.107C1110.18 685.107 1236.5 808.93 1236.5 961.33Z" stroke="#E54EC6" stroke-width="15" shape-rendering="crispEdges"/>
</g>
<g filter="url(#filter6_d_15_344)">
<path d="M1158.65 960.074C1158.65 1071.6 1066.02 1162.22 951.49 1162.22C836.963 1162.22 744.325 1071.6 744.325 960.074C744.325 848.546 836.963 757.932 951.49 757.932C1066.02 757.932 1158.65 848.546 1158.65 960.074Z" stroke="#5D64FC" stroke-width="10" shape-rendering="crispEdges"/>
</g>
<g filter="url(#filter7_d_15_344)">
<line x1="955.225" y1="732.845" x2="955.225" y2="1192.33" stroke="#00EFFE" stroke-width="15"/>
</g>
<g filter="url(#filter8_d_15_344)">
<line x1="714.217" y1="958.852" x2="1191.27" y2="958.852" stroke="#00EFFE" stroke-width="15"/>
</g>
<g filter="url(#filter9_d_15_344)">
<path d="M766.947 922.413C766.947 922.413 879.662 878.684 954.004 878.473C1028.34 878.263 1141.06 922.413 1141.06 922.413" stroke="#00EFFE" stroke-width="10"/>
</g>
<g filter="url(#filter10_d_15_344)">
<path d="M1141.06 1001.5C1141.06 1001.5 1028.34 1045.23 954 1045.44C879.659 1045.65 766.944 1001.5 766.944 1001.5" stroke="#00EFFE" stroke-width="10"/>
</g>
<circle cx="911.002" cy="327.607" r="15" fill="#87F8FF"/>
<circle cx="394.502" cy="1087.11" r="17.5" fill="#00EFFE"/>
<circle cx="1670" cy="530.607" r="15" fill="#00EFFE"/>
<circle cx="1599" cy="1030.61" r="15" fill="#00EFFE"/>
<circle cx="1073.5" cy="1547.11" r="12.5" fill="#00EFFE"/>
<path d="M1826.5 949.43C1826.5 1433.81 1436.74 1826.43 956.002 1826.43C475.262 1826.43 85.5019 1433.81 85.5019 949.43C85.502 465.051 475.263 72.4297 956.002 72.4296C1436.74 72.4297 1826.5 465.051 1826.5 949.43Z" stroke="url(#paint2_linear_15_344)" stroke-width="7"/>
<defs>
<filter id="filter0_d_15_344" x="148.693" y="417.978" width="1610.05" height="1047.56" filterUnits="userSpaceOnUse" color-interpolation-filters="sRGB">
<feFlood flood-opacity="0" result="BackgroundImageFix"/>
<feColorMatrix in="SourceAlpha" type="matrix" values="0 0 0 0 0 0 0 0 0 0 0 0 0 0 0 0 0 0 127 0" result="hardAlpha"/>
<feOffset/>
<feGaussianBlur stdDeviation="2"/>
<feComposite in2="hardAlpha" operator="out"/>
<feColorMatrix type="matrix" values="0 0 0 0 0 0 0 0 0 0.937255 0 0 0 0 0.996078 0 0 0 1 0"/>
<feBlend mode="normal" in2="BackgroundImageFix" result="effect1_dropShadow_15_344"/>
<feBlend mode="normal" in="SourceGraphic" in2="effect1_dropShadow_15_344" result="shape"/>
</filter>
<filter id="filter1_d_15_344" x="78.002" y="323.93" width="1755" height="1230" filterUnits="userSpaceOnUse" color-interpolation-filters="sRGB">
<feFlood flood-opacity="0" result="BackgroundImageFix"/>
<feColorMatrix in="SourceAlpha" type="matrix" values="0 0 0 0 0 0 0 0 0 0 0 0 0 0 0 0 0 0 127 0" result="hardAlpha"/>
<feOffset/>
<feGaussianBlur stdDeviation="2"/>
<feComposite in2="hardAlpha" operator="out"/>
<feColorMatrix type="matrix" values="0 0 0 0 0 0 0 0 0 0.937255 0 0 0 0 0.996078 0 0 0 1 0"/>
<feBlend mode="normal" in2="BackgroundImageFix" result="effect1_dropShadow_15_344"/>
<feBlend mode="normal" in="SourceGraphic" in2="effect1_dropShadow_15_344" result="shape"/>
</filter>
<filter id="filter2_d_15_344" x="82.002" y="498.607" width="1751" height="834" filterUnits="userSpaceOnUse" color-interpolation-filters="sRGB">
<feFlood flood-opacity="0" result="BackgroundImageFix"/>
<feColorMatrix in="SourceAlpha" type="matrix" values="0 0 0 0 0 0 0 0 0 0 0 0 0 0 0 0 0 0 127 0" result="hardAlpha"/>
<feOffset/>
<feGaussianBlur stdDeviation="2"/>
<feComposite in2="hardAlpha" operator="out"/>
<feColorMatrix type="matrix" values="0 0 0 0 0 0 0 0 0 0.937255 0 0 0 0 0.996078 0 0 0 1 0"/>
<feBlend mode="normal" in2="BackgroundImageFix" result="effect1_dropShadow_15_344"/>
<feBlend mode="normal" in="SourceGraphic" in2="effect1_dropShadow_15_344" result="shape"/>
</filter>
<filter id="filter3_d_15_344" x="490.244" y="135.119" width="998.457" height="1623.7" filterUnits="userSpaceOnUse" color-interpolation-filters="sRGB">
<feFlood flood-opacity="0" result="BackgroundImageFix"/>
<feColorMatrix in="SourceAlpha" type="matrix" values="0 0 0 0 0 0 0 0 0 0 0 0 0 0 0 0 0 0 127 0" result="hardAlpha"/>
<feOffset/>
<feGaussianBlur stdDeviation="2"/>
<feComposite in2="hardAlpha" operator="out"/>
<feColorMatrix type="matrix" values="0 0 0 0 0 0 0 0 0 0.937255 0 0 0 0 0.996078 0 0 0 1 0"/>
<feBlend mode="normal" in2="BackgroundImageFix" result="effect1_dropShadow_15_344"/>
<feBlend mode="normal" in="SourceGraphic" in2="effect1_dropShadow_15_344" result="shape"/>
</filter>
<filter id="filter4_d_15_344" x="382.002" y="64.6074" width="1163" height="1769" filterUnits="userSpaceOnUse" color-interpolation-filters="sRGB">
<feFlood flood-opacity="0" result="BackgroundImageFix"/>
<feColorMatrix in="SourceAlpha" type="matrix" values="0 0 0 0 0 0 0 0 0 0 0 0 0 0 0 0 0 0 127 0" result="hardAlpha"/>
<feOffset/>
<feGaussianBlur stdDeviation="2"/>
<feComposite in2="hardAlpha" operator="out"/>
<feColorMatrix type="matrix" values="0 0 0 0 0 0 0 0 0 0.937255 0 0 0 0 0.996078 0 0 0 1 0"/>
<feBlend mode="normal" in2="BackgroundImageFix" result="effect1_dropShadow_15_344"/>
<feBlend mode="normal" in="SourceGraphic" in2="effect1_dropShadow_15_344" result="shape"/>
</filter>
<filter id="filter5_d_15_344" x="660.002" y="673.607" width="588" height="575.446" filterUnits="userSpaceOnUse" color-interpolation-filters="sRGB">
<feFlood flood-opacity="0" result="BackgroundImageFix"/>
<feColorMatrix in="SourceAlpha" type="matrix" values="0 0 0 0 0 0 0 0 0 0 0 0 0 0 0 0 0 0 127 0" result="hardAlpha"/>
<feOffset/>
<feGaussianBlur stdDeviation="2"/>
<feComposite in2="hardAlpha" operator="out"/>
<feColorMatrix type="matrix" values="0 0 0 0 0.898039 0 0 0 0 0.305882 0 0 0 0 0.776471 0 0 0 1 0"/>
<feBlend mode="normal" in2="BackgroundImageFix" result="effect1_dropShadow_15_344"/>
<feBlend mode="normal" in="SourceGraphic" in2="effect1_dropShadow_15_344" result="shape"/>
</filter>
<filter id="filter6_d_15_344" x="735.326" y="748.932" width="432.328" height="422.286" filterUnits="userSpaceOnUse" color-interpolation-filters="sRGB">
<feFlood flood-opacity="0" result="BackgroundImageFix"/>
<feColorMatrix in="SourceAlpha" type="matrix" values="0 0 0 0 0 0 0 0 0 0 0 0 0 0 0 0 0 0 127 0" result="hardAlpha"/>
<feOffset/>
<feGaussianBlur stdDeviation="2"/>
<feComposite in2="hardAlpha" operator="out"/>
<feColorMatrix type="matrix" values="0 0 0 0 0.364706 0 0 0 0 0.392157 0 0 0 0 0.988235 0 0 0 1 0"/>
<feBlend mode="normal" in2="BackgroundImageFix" result="effect1_dropShadow_15_344"/>
<feBlend mode="normal" in="SourceGraphic" in2="effect1_dropShadow_15_344" result="shape"/>
</filter>
<filter id="filter7_d_15_344" x="943.725" y="728.845" width="23" height="467.48" filterUnits="userSpaceOnUse" color-interpolation-filters="sRGB">
<feFlood flood-opacity="0" result="BackgroundImageFix"/>
<feColorMatrix in="SourceAlpha" type="matrix" values="0 0 0 0 0 0 0 0 0 0 0 0 0 0 0 0 0 0 127 0" result="hardAlpha"/>
<feOffset/>
<feGaussianBlur stdDeviation="2"/>
<feComposite in2="hardAlpha" operator="out"/>
<feColorMatrix type="matrix" values="0 0 0 0 0 0 0 0 0 0.937255 0 0 0 0 0.996078 0 0 0 1 0"/>
<feBlend mode="normal" in2="BackgroundImageFix" result="effect1_dropShadow_15_344"/>
<feBlend mode="normal" in="SourceGraphic" in2="effect1_dropShadow_15_344" result="shape"/>
</filter>
<filter id="filter8_d_15_344" x="710.217" y="947.352" width="485.055" height="23" filterUnits="userSpaceOnUse" color-interpolation-filters="sRGB">
<feFlood flood-opacity="0" result="BackgroundImageFix"/>
<feColorMatrix in="SourceAlpha" type="matrix" values="0 0 0 0 0 0 0 0 0 0 0 0 0 0 0 0 0 0 127 0" result="hardAlpha"/>
<feOffset/>
<feGaussianBlur stdDeviation="2"/>
<feComposite in2="hardAlpha" operator="out"/>
<feColorMatrix type="matrix" values="0 0 0 0 0 0 0 0 0 0.937255 0 0 0 0 0.996078 0 0 0 1 0"/>
<feBlend mode="normal" in2="BackgroundImageFix" result="effect1_dropShadow_15_344"/>
<feBlend mode="normal" in="SourceGraphic" in2="effect1_dropShadow_15_344" result="shape"/>
</filter>
<filter id="filter9_d_15_344" x="761.143" y="869.473" width="385.738" height="61.6016" filterUnits="userSpaceOnUse" color-interpolation-filters="sRGB">
<feFlood flood-opacity="0" result="BackgroundImageFix"/>
<feColorMatrix in="SourceAlpha" type="matrix" values="0 0 0 0 0 0 0 0 0 0 0 0 0 0 0 0 0 0 127 0" result="hardAlpha"/>
<feOffset/>
<feGaussianBlur stdDeviation="2"/>
<feComposite in2="hardAlpha" operator="out"/>
<feColorMatrix type="matrix" values="0 0 0 0 0 0 0 0 0 0.937255 0 0 0 0 0.996078 0 0 0 1 0"/>
<feBlend mode="normal" in2="BackgroundImageFix" result="effect1_dropShadow_15_344"/>
<feBlend mode="normal" in="SourceGraphic" in2="effect1_dropShadow_15_344" result="shape"/>
</filter>
<filter id="filter10_d_15_344" x="761.123" y="992.842" width="385.738" height="61.6016" filterUnits="userSpaceOnUse" color-interpolation-filters="sRGB">
<feFlood flood-opacity="0" result="BackgroundImageFix"/>
<feColorMatrix in="SourceAlpha" type="matrix" values="0 0 0 0 0 0 0 0 0 0 0 0 0 0 0 0 0 0 127 0" result="hardAlpha"/>
<feOffset/>
<feGaussianBlur stdDeviation="2"/>
<feComposite in2="hardAlpha" operator="out"/>
<feColorMatrix type="matrix" values="0 0 0 0 0 0 0 0 0 0.937255 0 0 0 0 0.996078 0 0 0 1 0"/>
<feBlend mode="normal" in2="BackgroundImageFix" result="effect1_dropShadow_15_344"/>
<feBlend mode="normal" in="SourceGraphic" in2="effect1_dropShadow_15_344" result="shape"/>
</filter>
<linearGradient id="paint0_linear_15_344" x1="1324.55" y1="154.108" x2="654.394" y2="1739.83" gradientUnits="userSpaceOnUse">
<stop stop-color="#5D64FC"/>
<stop offset="0.134615" stop-color="#0A7B8F"/>
<stop offset="1" stop-color="#01434E"/>
</linearGradient>
<linearGradient id="paint1_linear_15_344" x1="963.502" y1="68.6074" x2="1541" y2="1269.79" gradientUnits="userSpaceOnUse">
<stop stop-color="#B1D0FF"/>
<stop offset="0.0673077" stop-color="#066E7C"/>
<stop offset="1" stop-color="#7D0BC8"/>
</linearGradient>
<linearGradient id="paint2_linear_15_344" x1="763.002" y1="93.1074" x2="956.002" y2="1829.93" gradientUnits="userSpaceOnUse">
<stop stop-color="#9DD3FF"/>
<stop offset="0.0384615" stop-color="#0A888F"/>
<stop offset="0.634615" stop-color="#01434E"/>
<stop offset="1" stop-color="#47A2ED"/>
</linearGradient>
</defs>
</svg>
